<svg width="48" height="48" xmlns="http://www.w3.org/2000/svg" stroke="currentColor" fill="currentColor" stroke-width="0">
    <g>
        <circle transform="rotate(135 23.8295 23.7583)" id="Ellipse_694" cx="23.82945" cy="23.75826" r="19.211"/>
        <path id="Pfad_10582" d="m26.22732,23.74859a2.057,2.057 0 1 1 -2.056,-2.057a2.057,2.057 0 0 1 2.056,2.057z"
              fill="#262626"/>
        <path id="Pfad_10583"
              d="m18.48432,18.20759l1.454,1.449a6.138,6.138 0 0 1 8.456,-0.009l1.453,-1.453a8.188,8.188 0 0 0 -11.363,0.013z"
              fill="#262626"/>
        <path id="Pfad_10584"
              d="m14.12332,14.16959l1.454,1.453a12.293,12.293 0 0 1 17.177,-0.01l1.454,-1.449a14.346,14.346 0 0 0 -20.085,0.006z"
              fill="#262626"/>
        <path id="Pfad_10585"
              d="m38.56732,10.19659a20.505,20.505 0 0 0 -28.793,0l0,0.024l1.443,1.447a18.442,18.442 0 0 1 25.895,-0.01l1.455,-1.455l0,-0.006z"
              fill="#262626"/>
    </g>
</svg>