<svg viewBox="0 0 500 500" xmlns="http://www.w3.org/2000/svg" fill="currentColor">
    <path d="M 276.082 36.004 L 147.682 164.401 L 19.284 164.401 L 19.284 335.599 L 147.682 335.599 L 276.082 463.996 L 276.082 36.004 Z M 344.908 73.01 L 338.675 96.264 C 408.313 114.922 456.641 177.903 456.641 250 C 456.641 322.096 408.313 385.077 338.675 403.736 L 344.908 426.991 C 424.956 405.542 480.716 332.873 480.716 250 C 480.716 167.126 424.956 94.459 344.908 73.01 Z M 328.291 135.022 L 322.06 158.276 C 363.633 169.415 392.442 206.962 392.442 250 C 392.442 293.038 363.633 330.586 322.06 341.724 L 328.291 364.979 C 380.274 351.049 416.516 303.816 416.516 250 C 416.516 196.183 380.274 148.95 328.291 135.022 Z M 311.674 197.032 L 305.445 220.286 C 318.948 223.905 328.244 236.019 328.244 250 C 328.244 263.982 318.948 276.094 305.443 279.714 L 311.674 302.969 C 335.592 296.56 352.319 274.762 352.319 250 C 352.319 225.239 335.592 203.44 311.674 197.032 Z"
          style="" transform="matrix(0, -1, 1, 0, 0, 500)"></path>
</svg>