<svg viewBox="0 0 48 48"  xmlns="http://www.w3.org/2000/svg" fill="currentColor">
 <g>
  <title>Layer 1</title>
  <circle id="Ellipse_682" cx="23.96341" cy="24.54456" r="3.623" transform="rotate(135 23.9634 24.5446)"/>
  <path id="Pfad_10582" d="m25.60907,24.06703a1.643,1.643 0 1 1 -1.643,-1.628a1.635,1.635 0 0 1 1.643,1.628z"/>
  <path id="Pfad_10583" d="m19.42207,17.65403l1.162,1.15a4.935,4.935 0 0 1 6.754,-0.007l1.161,-1.15a6.584,6.584 0 0 0 -9.077,0.008l0,-0.001z"/>
  <path id="Pfad_10584" d="m13.84607,12.75203l1.465,1.15a14.9,14.9 0 0 1 17.3,-0.008l1.464,-1.15a17.385,17.385 0 0 0 -20.229,0.008z"/>
  <path id="Pfad_10585" d="m37.55907,7.49603c-7.539,-6.231 -19.649,-6.231 -27.187,0l0,0.019l1.363,1.142a19.884,19.884 0 0 1 24.45,-0.008l1.374,-1.152l0,-0.001z"/>
 </g>
</svg>