<svg stroke="currentColor" fill="currentColor" stroke-width="0" viewBox="0 0 16 16" height="1em" width="1em"
     xmlns="http://www.w3.org/2000/svg">
    <path d="M 0 1 C 0 0.448 0.276 0 0.616 0 L 3.694 0 C 4.033 0 4.309 0.448 4.309 1 L 4.309 15 C 4.309 15.552 4.033 16 3.694 16 L 0.616 16 C 0.276 16 0 15.552 0 15 L 0 1 Z"
    />
    <path d="M 5.845 1 C 5.845 0.448 6.121 0 6.461 0 L 9.539 0 C 9.878 0 10.154 0.448 10.154 1 L 10.154 15 C 10.154 15.552 9.878 16 9.539 16 L 6.461 16 C 6.121 16 5.845 15.552 5.845 15 L 5.845 1 Z"
    />
    <path d="M 11.691 1 C 11.691 0.448 11.967 0 12.307 0 L 15.385 0 C 15.724 0 16 0.448 16 1 L 16 15 C 16 15.552 15.724 16 15.385 16 L 12.307 16 C 11.967 16 11.691 15.552 11.691 15 L 11.691 1 Z"
    />
</svg>